P3
	4 4
	255
	0  10  0   100 10  0       0  10 0    255   10 255  
	4  10  0    0 255 175     0  10  0     10    10  0  
	0  10  0    0  10  0       0 15 175    0    10  0    
	255 0 255  0  10 0       0  10  0    255  255 255